<?xml version="1.0" standalone="no"?>
<!DOCTYPE svg PUBLIC "-//W3C//DTD SVG 20010904//EN"
 "http://www.w3.org/TR/2001/REC-SVG-20010904/DTD/svg10.dtd">
<svg version="1.0" xmlns="http://www.w3.org/2000/svg"
 width="169.000000pt" height="169.000000pt" viewBox="0 0 169.000000 169.000000"
 preserveAspectRatio="xMidYMid meet">
<metadata>
Created by potrace 1.14, written by Peter Selinger 2001-2017
</metadata>
<g transform="translate(0.000000,169.000000) scale(0.100000,-0.100000)"
fill="#000000" stroke="none">
<path d="M410 1426 c-19 -13 -42 -33 -51 -44 -20 -24 -99 -180 -99 -196 0 -6
17 -18 38 -27 78 -33 94 -131 30 -190 -17 -15 -35 -26 -40 -23 -4 3 -8 3 -8 0
0 -3 15 -12 34 -20 95 -40 91 -162 -7 -208 l-36 -18 14 -34 c14 -33 14 -34
-19 -57 -53 -36 -71 -77 -90 -203 -6 -38 -41 -106 -54 -106 -4 0 -25 11 -47
25 -52 32 -79 33 -69 3 3 -13 7 -23 8 -24 0 0 14 -10 29 -22 31 -23 68 -23
147 -2 51 14 94 75 110 159 22 113 20 111 70 50 64 -78 144 -156 180 -174 84
-43 198 -21 240 47 25 40 21 77 -17 156 -22 46 -28 73 -30 142 -4 163 49 216
232 234 84 8 101 14 114 43 6 14 8 23 4 21 -76 -39 -92 -42 -223 -45 -74 -2
-149 -8 -167 -14 -36 -12 -93 -65 -93 -88 -1 -29 -27 32 -45 103 -19 79 -23
175 -10 296 4 47 8 104 8 127 -2 100 -76 143 -153 89z"/>
<path d="M857 793 c-3 -10 -4 -64 -4 -120 2 -106 13 -137 38 -110 11 11 18 12
34 2 11 -6 26 -11 33 -10 6 2 19 3 27 4 26 2 54 59 50 101 -5 52 -31 80 -75
80 -20 0 -41 -5 -48 -12 -13 -13 -12 -15 -15 47 -2 34 -32 47 -40 18z m118
-103 c30 -34 7 -100 -35 -100 -18 0 -40 32 -40 57 0 28 25 63 45 63 7 0 20 -9
30 -20z"/>
<path d="M1128 742 c-25 -3 -58 -34 -58 -54 0 -14 31 -9 46 7 17 17 42 19 63
6 22 -14 4 -29 -45 -37 -56 -8 -80 -37 -65 -78 6 -14 18 -27 28 -28 31 -2 67
3 78 12 6 5 18 2 29 -6 22 -15 51 -1 39 19 -4 7 -8 38 -9 71 -1 33 -8 64 -16
72 -15 15 -51 21 -90 16z m59 -114 c-5 -31 -47 -52 -66 -34 -18 19 -7 34 32
45 18 5 33 10 34 10 2 1 1 -9 0 -21z"/>
<path d="M1357 735 c-20 -7 -37 -9 -37 -4 0 5 -9 9 -20 9 -22 0 -22 -1 -21
-109 0 -40 5 -67 13 -72 24 -15 38 12 38 72 0 47 4 60 19 69 22 11 47 5 49
-13 0 -7 1 -37 3 -67 1 -30 6 -58 12 -62 23 -15 34 5 36 67 3 100 -25 133 -92
110z"/>
<path d="M1550 742 c-29 -5 -60 -29 -60 -49 0 -18 28 -17 46 2 16 16 59 20 68
7 9 -15 -10 -33 -40 -38 -50 -8 -64 -15 -73 -33 -14 -25 -3 -57 22 -68 25 -11
80 -6 85 8 2 5 13 2 25 -6 26 -18 51 -2 38 24 -5 9 -8 38 -7 65 3 72 -30 100
-104 88z m60 -114 c0 -26 -18 -40 -45 -36 -36 4 -44 25 -13 37 33 14 58 13 58
-1z"/>
<path d="M1003 518 c-5 -7 -9 -41 -8 -75 1 -35 0 -63 -2 -63 -1 0 -24 32 -50
70 -36 55 -51 70 -67 68 -20 -3 -21 -10 -22 -105 -1 -82 2 -103 14 -108 23 -9
27 1 28 71 1 36 4 68 8 71 3 4 6 1 6 -6 0 -18 79 -131 97 -138 24 -9 30 12 28
112 -1 94 -12 129 -32 103z"/>
<path d="M1140 522 c-48 -22 -80 -69 -80 -115 0 -27 29 -72 59 -94 29 -20 93
-19 125 3 15 9 34 32 43 51 19 42 7 96 -31 132 -25 23 -89 36 -116 23z"/>
<path d="M1632 521 c-20 -12 -16 -141 5 -148 13 -5 19 18 22 89 2 57 -5 73
-27 59z"/>
<path d="M1313 488 c12 -74 39 -167 53 -179 21 -17 39 3 55 59 7 26 13 50 14
55 2 4 3 15 4 25 2 26 16 -2 31 -65 27 -117 59 -109 90 22 12 52 22 98 23 102
1 5 -8 9 -20 11 -15 2 -23 -2 -24 -12 -1 -9 -2 -19 -3 -23 -2 -5 -6 -30 -11
-58 l-8 -50 -13 30 c-6 17 -17 49 -23 73 -10 33 -16 42 -34 42 -19 0 -25 -10
-40 -58 -9 -32 -17 -65 -17 -72 -1 -25 -16 9 -25 55 -5 22 -9 43 -10 48 -2 4
-3 12 -4 17 0 6 -10 10 -22 10 -18 0 -20 -4 -16 -32z"/>
<path d="M1623 334 c-7 -19 11 -39 26 -30 16 10 13 33 -4 40 -9 3 -18 -1 -22
-10z"/>
</g>
</svg>
